<svg width="22" height="28" viewBox="0 0 22 28" fill="none" xmlns="http://www.w3.org/2000/svg">
<path d="M9.33899 22.034L9.15599 22.0942C7.97899 22.4849 6.23799 23.0885 4.67499 23.8074C4.59199 23.8475 4.53699 23.9577 4.53699 23.9577C4.50699 24.0253 4.47199 24.108 4.43199 24.2006L4.42699 24.2132C4.25099 24.6114 4.01098 25.21 3.90598 25.4555L3.82598 25.6484C3.81298 25.6784 3.82099 25.7135 3.84599 25.736C3.86099 25.7511 3.87799 25.7586 3.89799 25.7586C3.90799 25.7586 3.92099 25.7561 3.93299 25.7511L4.12099 25.6609C4.54999 25.458 5.09098 25.1499 5.65698 24.8794L5.67699 24.8694C6.75599 24.3584 7.97399 23.7798 8.70699 23.4292C8.70699 23.4292 8.82498 23.3666 8.88498 23.2488L9.43399 22.1468C9.44899 22.1192 9.44398 22.0841 9.42398 22.0591C9.40398 22.034 9.36899 22.024 9.33899 22.034Z" fill="black"/>
<path d="M4.95003 20.3258C5.02803 20.1755 5.38403 19.4892 5.46403 19.3364L5.47903 19.3089C7.86303 14.8129 10.769 10.5699 14.113 6.70258L14.206 6.59488C14.233 6.56238 14.238 6.51228 14.218 6.47468C14.196 6.43458 14.153 6.41458 14.11 6.41958L13.97 6.43958C11.776 6.74268 9.55403 7.16098 7.36503 7.68448C7.14703 7.74458 7.00703 7.88738 6.97703 7.91988C5.33903 9.88108 3.78803 11.945 2.36503 14.0615C2.29503 14.1692 2.27003 14.3095 2.28803 14.4247C2.30303 14.5374 2.64603 17.1799 3.16703 19.2087C1.87503 22.9282 0.720032 27.8299 0.720032 27.8299C0.710032 27.8625 0.717031 27.8951 0.735031 27.9226C0.755031 27.9502 0.78503 27.9652 0.82003 27.9652H1.55603C1.60403 27.9652 1.64403 27.9376 1.66203 27.895L1.71203 27.7573C2.46303 25.7084 3.32003 23.6846 4.26703 21.7109C4.48703 21.255 4.95003 20.3258 4.95003 20.3258Z" fill="black"/>
<path d="M15.192 7.50909L15.189 7.36889C15.187 7.32379 15.159 7.28619 15.119 7.27119C15.079 7.25619 15.032 7.26869 15.002 7.30129L14.909 7.40649C11.009 11.9175 7.72999 16.9219 5.16599 22.2845L5.10599 22.4097C5.08599 22.4498 5.09299 22.4974 5.12299 22.5299C5.14299 22.55 5.17098 22.5625 5.19798 22.5625C5.21098 22.5625 5.22598 22.56 5.24098 22.555L5.36899 22.5024C7.55999 21.5957 9.79699 20.8092 12.018 20.1655C12.151 20.1279 12.264 20.0327 12.327 19.91C13.301 18.0114 15.563 14.3345 15.563 14.3345C15.62 14.2518 15.605 14.1291 15.605 14.1291C15.605 14.1291 15.217 9.73329 15.192 7.50909Z" fill="black"/>
<path d="M20.236 1.16714C19.683 0.68624 18.879 0.46081 17.632 0.43326C16.499 0.40821 15.154 0.653679 13.629 1.15462C13.401 1.23477 13.218 1.36251 13.056 1.52031C11.505 2.97555 9.99701 4.52096 8.57201 6.11394L8.46201 6.23414C8.43201 6.26924 8.42701 6.31934 8.44901 6.35694C8.47201 6.39704 8.52 6.41704 8.565 6.40704L8.72501 6.37194C11.022 5.88102 13.341 5.50531 15.618 5.25735C15.768 5.23981 15.923 5.28991 16.034 5.3926C16.146 5.49529 16.209 5.64307 16.206 5.79586C16.169 8.05514 16.251 10.3244 16.452 12.541L16.464 12.6863C16.469 12.7314 16.499 12.7665 16.545 12.779C16.552 12.7815 16.56 12.7815 16.57 12.784C16.602 12.784 16.637 12.769 16.66 12.7389L16.742 12.6212C18.025 10.7927 19.42 9.01444 20.888 7.33124C21.053 7.14344 21.096 7.02564 21.126 6.85534C21.586 3.9048 20.873 1.72069 20.236 1.16714Z" fill="black"/>
</svg>